<?xml version="1.0" encoding="utf-8"?>
<!-- Generator: Adobe Illustrator 14.0.0, SVG Export Plug-In . SVG Version: 6.00 Build 43363)  -->
<!DOCTYPE svg PUBLIC "-//W3C//DTD SVG 1.1//EN" "http://www.w3.org/Graphics/SVG/1.1/DTD/svg11.dtd">
<svg version="1.1" id="Layer_1" xmlns="http://www.w3.org/2000/svg" xmlns:xlink="http://www.w3.org/1999/xlink" x="0px" y="0px"
	 width="16px" height="16px" viewBox="0 0 16 16" style="enable-background:new 0 0 16 16;" xml:space="preserve">
<style type="text/css">
<![CDATA[
	.st0{fill:#E0583A;}
	.st1{fill:#F26A4C;}
	.st2{fill:#C74E34;}
	.st3{fill:#FFA18B;}
	.st4{fill:#FFFFFF;}
]]>
</style>
<g>
	<path class="st1" d="M15,15.341c0,0.359-0.295,0.65-0.655,0.65H1.657c-0.36,0-0.654-0.291-0.654-0.65V0.64
		c0-0.36,0.293-0.653,0.654-0.653h10.728L15,2.599V15.341z"/>
	<polygon class="st0" points="15,4.83 12.586,2.417 15,2.599 	"/>
	<g>
		<path class="st3" d="M15,2.599h-1.961c-0.361,0-0.654-0.292-0.654-0.652v-1.96L15,2.599z"/>
	</g>
</g>
<path class="st2" d="M13.088,9.166c-0.563-0.555-2.17-0.404-2.971-0.301C9.322,8.381,8.792,7.713,8.418,6.729
	c0.181-0.743,0.466-1.874,0.25-2.584C8.473,2.937,6.923,3.057,6.702,3.873C6.499,4.616,6.685,5.649,7.025,6.968
	C6.563,8.071,5.876,9.551,5.392,10.4c-0.923,0.475-2.169,1.211-2.354,2.133c-0.153,0.727,1.2,2.547,3.511-1.441
	c1.033-0.34,2.16-0.762,3.155-0.926c0.873,0.469,1.893,0.785,2.574,0.785C13.457,10.951,13.572,9.65,13.088,9.166z M3.947,12.752
	c0.235-0.631,1.13-1.359,1.403-1.613C4.474,12.537,3.947,12.787,3.947,12.752z M7.712,3.961c0.342,0,0.31,1.48,0.084,1.882
	C7.592,5.202,7.597,3.961,7.712,3.961z M6.587,10.262c0.447-0.779,0.831-1.707,1.14-2.521c0.383,0.695,0.872,1.252,1.389,1.637
	C8.156,9.574,7.319,9.98,6.587,10.262z M12.66,10.031c0,0-0.232,0.275-1.723-0.357C12.557,9.551,12.824,9.922,12.66,10.031z"/>
<path class="st4" d="M12.898,8.961c-0.563-0.554-2.17-0.403-2.971-0.3C9.133,8.175,8.603,7.507,8.229,6.523
	c0.18-0.743,0.465-1.874,0.25-2.584C8.284,2.73,6.734,2.851,6.513,3.667C6.31,4.41,6.495,5.443,6.836,6.762
	c-0.461,1.103-1.149,2.584-1.633,3.433c-0.923,0.476-2.169,1.211-2.354,2.134c-0.153,0.727,1.2,2.547,3.511-1.442
	c1.034-0.34,2.16-0.761,3.155-0.925c0.873,0.469,1.893,0.784,2.574,0.784C13.268,10.746,13.383,9.445,12.898,8.961z M3.758,12.548
	c0.235-0.631,1.13-1.36,1.403-1.614C4.284,12.332,3.758,12.583,3.758,12.548z M7.522,3.755c0.342,0,0.31,1.48,0.084,1.882
	C7.402,4.996,7.407,3.755,7.522,3.755z M6.398,10.057C6.845,9.278,7.229,8.35,7.537,7.534C7.92,8.23,8.409,8.787,8.926,9.172
	C7.966,9.37,7.13,9.776,6.398,10.057z M12.471,9.826c0,0-0.232,0.276-1.723-0.357C12.367,9.347,12.635,9.717,12.471,9.826z"/>
</svg>
